mtllib procedural_trees.mtl
o tree_lime_round
v 0.00000 0.00000 0.13000
v 0.00000 0.76000 0.08000
v 0.09192 0.00000 0.09192
v 0.05657 0.76000 0.05657
v 0.13000 0.00000 0.00000
v 0.08000 0.76000 0.00000
v 0.09192 0.00000 -0.09192
v 0.05657 0.76000 -0.05657
v 0.00000 0.00000 -0.13000
v 0.00000 0.76000 -0.08000
v -0.09192 0.00000 -0.09192
v -0.05657 0.76000 -0.05657
v -0.13000 0.00000 -0.00000
v -0.08000 0.76000 -0.00000
v -0.09192 0.00000 0.09192
v -0.05657 0.76000 0.05657
v 0.00000 0.00000 0.00000
v 0.00000 0.76000 0.00000
v 0.04000 1.33000 0.10000
v 0.04000 1.33000 0.10000
v 0.04000 1.33000 0.10000
v 0.04000 1.33000 0.10000
v 0.04000 1.33000 0.10000
v 0.04000 1.33000 0.10000
v 0.04000 1.33000 0.10000
v 0.04000 1.33000 0.10000
v 0.04000 1.33000 0.10000
v 0.04000 1.33000 0.10000
v 0.29392 1.25092 0.10000
v 0.23999 1.25092 0.24148
v 0.12885 1.25092 0.36624
v -0.04677 1.25092 0.36002
v -0.18173 1.25092 0.25686
v -0.22736 1.25092 0.10000
v -0.17086 1.25092 -0.04917
v -0.03847 1.25092 -0.13514
v 0.11639 1.25092 -0.12892
v 0.27260 1.25092 -0.06455
v 0.42760 1.06000 0.10000
v 0.34589 1.06000 0.31639
v 0.15390 1.06000 0.44133
v -0.07097 1.06000 0.43254
v -0.24283 1.06000 0.30008
v -0.36660 1.06000 0.10000
v -0.28126 1.06000 -0.12727
v -0.07977 1.06000 -0.25893
v 0.15684 1.06000 -0.25013
v 0.33820 1.06000 -0.11096
v 0.28720 0.86908 0.10000
v 0.27260 0.86908 0.26455
v 0.12677 0.86908 0.36002
v -0.04469 0.86908 0.35380
v -0.17630 0.86908 0.25301
v -0.22064 0.86908 0.10000
v -0.16543 0.86908 -0.04532
v -0.03639 0.86908 -0.12892
v 0.12885 0.86908 -0.16624
v 0.26717 0.86908 -0.06070
v 0.04000 0.79000 0.10000
v 0.04000 0.79000 0.10000
v 0.04000 0.79000 0.10000
v 0.04000 0.79000 0.10000
v 0.04000 0.79000 0.10000
v 0.04000 0.79000 0.10000
v 0.04000 0.79000 0.10000
v 0.04000 0.79000 0.10000
v 0.04000 0.79000 0.10000
v 0.04000 0.79000 0.10000
v 0.00000 1.55000 0.00000
v 0.00000 1.55000 0.00000
v 0.00000 1.55000 0.00000
v 0.00000 1.55000 0.00000
v 0.00000 1.55000 0.00000
v 0.00000 1.55000 0.00000
v 0.00000 1.55000 0.00000
v 0.00000 1.55000 0.00000
v 0.00000 1.55000 0.00000
v 0.00000 1.55000 0.00000
v 0.27973 1.45335 0.00000
v 0.26321 1.45335 0.18234
v 0.09819 1.45335 0.28813
v -0.09584 1.45335 0.28124
v -0.24476 1.45335 0.16956
v -0.29493 1.45335 0.00000
v -0.23246 1.45335 -0.16103
v -0.08644 1.45335 -0.25367
v 0.10054 1.45335 -0.29503
v 0.25706 1.45335 -0.17808
v 0.42785 1.22000 0.00000
v 0.33744 1.22000 0.23376
v 0.12557 1.22000 0.36849
v -0.12225 1.22000 0.35874
v -0.37223 1.22000 0.25786
v -0.44935 1.22000 0.00000
v -0.35483 1.22000 -0.24581
v -0.13221 1.22000 -0.38798
v 0.12889 1.22000 -0.37824
v 0.32874 1.22000 -0.22774
v 0.32534 0.98665 0.00000
v 0.25706 0.98665 0.17808
v 0.09584 0.98665 0.28124
v -0.09349 0.98665 0.27435
v -0.23861 0.98665 0.16529
v -0.28733 0.98665 0.00000
v -0.22631 0.98665 -0.15677
v -0.10054 0.98665 -0.29503
v 0.09819 0.98665 -0.28813
v 0.25091 0.98665 -0.17382
v 0.00000 0.89000 0.00000
v 0.00000 0.89000 0.00000
v 0.00000 0.89000 0.00000
v -0.00000 0.89000 0.00000
v -0.00000 0.89000 0.00000
v -0.00000 0.89000 0.00000
v -0.00000 0.89000 -0.00000
v -0.00000 0.89000 -0.00000
v 0.00000 0.89000 -0.00000
v 0.00000 0.89000 -0.00000
v -0.08000 1.22000 -0.24000
v -0.08000 1.22000 -0.24000
v -0.08000 1.22000 -0.24000
v -0.08000 1.22000 -0.24000
v -0.08000 1.22000 -0.24000
v -0.08000 1.22000 -0.24000
v -0.08000 1.22000 -0.24000
v -0.08000 1.22000 -0.24000
v 0.13942 1.16435 -0.24000
v 0.07153 1.16435 -0.11982
v -0.08000 1.16435 -0.07411
v -0.22428 1.16435 -0.12557
v -0.27891 1.16435 -0.24000
v -0.21703 1.16435 -0.34868
v -0.08000 1.16435 -0.38962
v 0.07515 1.16435 -0.36305
v 0.20130 1.03000 -0.24000
v 0.11378 1.03000 -0.08631
v -0.08000 1.03000 -0.02840
v -0.29942 1.03000 -0.06598
v -0.38305 1.03000 -0.24000
v -0.28916 1.03000 -0.40589
v -0.08000 1.03000 -0.46885
v 0.11891 1.03000 -0.39776
v 0.13429 0.89565 -0.24000
v 0.06790 0.89565 -0.12270
v -0.08000 0.89565 -0.07818
v -0.22065 0.89565 -0.12845
v -0.27378 0.89565 -0.24000
v -0.21340 0.89565 -0.34580
v -0.08000 0.89565 -0.41402
v 0.07152 0.89565 -0.36018
v -0.08000 0.84000 -0.24000
v -0.08000 0.84000 -0.24000
v -0.08000 0.84000 -0.24000
v -0.08000 0.84000 -0.24000
v -0.08000 0.84000 -0.24000
v -0.08000 0.84000 -0.24000
v -0.08000 0.84000 -0.24000
v -0.08000 0.84000 -0.24000
vt 0.75000 0.00000
vt 0.75000 0.49032
vt 0.62500 0.00000
vt 0.62500 0.49032
vt 0.50000 0.00000
vt 0.50000 0.49032
vt 0.37500 0.00000
vt 0.37500 0.49032
vt 0.25000 0.00000
vt 0.25000 0.49032
vt 0.12500 0.00000
vt 0.12500 0.49032
vt 0.00000 0.00000
vt 0.00000 0.49032
vt 0.87500 0.00000
vt 0.87500 0.49032
vt 0.50000 0.00000
vt 0.50000 0.49032
vt 0.68944 0.85806
vt 0.68944 0.85806
vt 0.68944 0.85806
vt 0.68944 0.85806
vt 0.68944 0.85806
vt 0.68944 0.85806
vt 0.68944 0.85806
vt 0.68944 0.85806
vt 0.68944 0.85806
vt 0.68944 0.85806
vt 0.55219 0.80705
vt 0.62549 0.80705
vt 0.69616 0.80705
vt 0.77056 0.80705
vt 0.84800 0.80705
vt 0.93405 0.80705
vt 0.04460 0.80705
vt 0.20586 0.80705
vt 0.36688 0.80705
vt 0.46299 0.80705
vt 0.53656 0.68387
vt 0.61792 0.68387
vt 0.69660 0.68387
vt 0.77588 0.68387
vt 0.85828 0.68387
vt 0.95762 0.68387
vt 0.06763 0.68387
vt 0.20244 0.68387
vt 0.33914 0.68387
vt 0.44954 0.68387
vt 0.55333 0.56070
vt 0.62262 0.56070
vt 0.69612 0.56070
vt 0.77000 0.56070
vt 0.84686 0.56070
vt 0.93227 0.56070
vt 0.04256 0.56070
vt 0.20621 0.56070
vt 0.35494 0.56070
vt 0.46444 0.56070
vt 0.68944 0.50968
vt 0.68944 0.50968
vt 0.68944 0.50968
vt 0.68944 0.50968
vt 0.68944 0.50968
vt 0.68944 0.50968
vt 0.68944 0.50968
vt 0.68944 0.50968
vt 0.68944 0.50968
vt 0.68944 0.50968
vt 0.50000 1.00000
vt 0.50000 1.00000
vt 0.50000 1.00000
vt 0.50000 1.00000
vt 0.50000 1.00000
vt 0.50000 1.00000
vt 0.50000 1.00000
vt 0.50000 1.00000
vt 0.50000 1.00000
vt 0.50000 1.00000
vt 0.50000 0.93765
vt 0.59642 0.93765
vt 0.69773 0.93765
vt 0.80227 0.93765
vt 0.90358 0.93765
vt 1.00000 0.93765
vt 0.09642 0.93765
vt 0.19773 0.93765
vt 0.30227 0.93765
vt 0.40358 0.93765
vt 0.50000 0.78710
vt 0.59642 0.78710
vt 0.69773 0.78710
vt 0.80227 0.78710
vt 0.90358 0.78710
vt 1.00000 0.78710
vt 0.09642 0.78710
vt 0.19773 0.78710
vt 0.30227 0.78710
vt 0.40358 0.78710
vt 0.50000 0.63655
vt 0.59642 0.63655
vt 0.69773 0.63655
vt 0.80227 0.63655
vt 0.90358 0.63655
vt 1.00000 0.63655
vt 0.09642 0.63655
vt 0.19773 0.63655
vt 0.30227 0.63655
vt 0.40358 0.63655
vt 0.50000 0.57419
vt 0.50000 0.57419
vt 0.50000 0.57419
vt 0.50000 0.57419
vt 0.50000 0.57419
vt 0.50000 0.57419
vt 0.50000 0.57419
vt 0.50000 0.57419
vt 0.50000 0.57419
vt 0.50000 0.57419
vt 0.19879 0.78710
vt 0.19879 0.78710
vt 0.19879 0.78710
vt 0.19879 0.78710
vt 0.19879 0.78710
vt 0.19879 0.78710
vt 0.19879 0.78710
vt 0.19879 0.78710
vt 0.33376 0.75119
vt 0.33566 0.75119
vt 0.11892 0.75119
vt 0.08123 0.75119
vt 0.11309 0.75119
vt 0.16139 0.75119
vt 0.21777 0.75119
vt 0.28249 0.75119
vt 0.36108 0.66452
vt 0.39671 0.66452
vt 0.05429 0.66452
vt 0.03452 0.66452
vt 0.08908 0.66452
vt 0.15148 0.66452
vt 0.22310 0.66452
vt 0.29623 0.66452
vt 0.33119 0.57784
vt 0.33044 0.57784
vt 0.12317 0.57784
vt 0.08390 0.57784
vt 0.11455 0.57784
vt 0.16200 0.57784
vt 0.21962 0.57784
vt 0.28120 0.57784
vt 0.19879 0.54194
vt 0.19879 0.54194
vt 0.19879 0.54194
vt 0.19879 0.54194
vt 0.19879 0.54194
vt 0.19879 0.54194
vt 0.19879 0.54194
vt 0.19879 0.54194
vn 0.10777 -0.61567 -0.78060
vn -0.11464 0.54556 -0.83020
vn -0.47575 -0.61566 -0.62819
vn -0.66808 0.54556 -0.50600
vn -0.78060 -0.61567 -0.10777
vn -0.83020 0.54556 0.11464
vn -0.62819 -0.61566 0.47575
vn -0.50600 0.54556 0.66808
vn -0.10777 -0.61567 0.78060
vn 0.11464 0.54556 0.83020
vn 0.47575 -0.61566 0.62819
vn 0.66808 0.54556 0.50600
vn 0.78060 -0.61567 0.10777
vn 0.83020 0.54556 -0.11464
vn 0.62819 -0.61566 -0.47575
vn 0.50600 0.54556 -0.66808
vn 0.00000 -1.00000 0.00000
vn 0.00000 1.00000 0.00000
vn -0.27310 0.96134 0.03538
vn -0.26913 0.95762 -0.10259
vn -0.21097 0.95925 -0.18794
vn 0.00943 0.96388 -0.26617
vn 0.16351 0.96307 -0.21391
vn 0.26052 0.96249 -0.07579
vn 0.25893 0.96090 0.09807
vn 0.15555 0.95834 0.23955
vn -0.01176 0.95611 0.29278
vn -0.10855 0.95856 0.26341
vn -0.79581 -0.60522 0.01970
vn -0.67694 -0.63885 -0.36554
vn -0.34881 -0.58537 -0.73190
vn 0.21722 -0.52396 -0.82358
vn 0.65978 -0.51855 -0.54387
vn 0.77942 -0.61796 -0.10315
vn 0.62472 -0.65764 0.42099
vn 0.26298 -0.64437 0.71807
vn -0.12825 -0.63172 0.76451
vn -0.60550 -0.59296 0.53081
vn -0.99965 -0.01593 -0.02103
vn -0.82874 -0.02782 -0.55894
vn -0.26525 0.01750 -0.96402
vn 0.34076 0.01660 -0.94001
vn 0.76982 -0.01426 -0.63810
vn 0.99786 -0.01957 -0.06244
vn 0.77778 0.01454 0.62836
vn 0.26416 0.01400 0.96438
vn -0.26025 -0.02839 0.96513
vn -0.81550 -0.01097 0.57865
vn -0.57261 0.81840 -0.04834
vn -0.46858 0.80227 -0.36987
vn -0.11160 0.78743 -0.60621
vn 0.26146 0.78299 -0.56442
vn 0.48909 0.80611 -0.33312
vn 0.52324 0.84943 0.06842
vn 0.38653 0.84342 0.37314
vn 0.16024 0.81524 0.55652
vn -0.19864 0.79912 0.56741
vn -0.50761 0.81651 0.27504
vn -0.10263 0.99468 -0.00911
vn -0.05269 0.99536 -0.08048
vn 0.00359 0.99508 -0.09905
vn 0.06109 0.99494 -0.07977
vn 0.09745 0.99484 -0.02824
vn 0.09726 0.99457 0.03695
vn 0.05880 0.99414 0.09075
vn 0.02323 0.99442 0.10286
vn -0.05825 0.99538 0.07634
vn -0.10260 0.99464 0.01279
vn -0.29510 0.95473 0.03757
vn -0.29542 0.95499 -0.02676
vn -0.15325 0.95884 -0.23905
vn 0.01037 0.95638 -0.29195
vn 0.17617 0.95592 -0.23491
vn 0.28133 0.95599 -0.08324
vn 0.27918 0.95411 0.10830
vn 0.16669 0.95036 0.26273
vn 0.06616 0.95192 0.29910
vn -0.16955 0.95904 0.22692
vn -0.81724 -0.56731 0.10136
vn -0.72328 -0.56380 -0.39873
vn -0.29773 -0.49468 -0.81648
vn 0.22140 -0.48440 -0.84637
vn 0.58033 -0.58469 -0.56689
vn 0.77309 -0.63320 -0.03720
vn 0.64616 -0.61961 0.44561
vn 0.34053 -0.59899 0.72474
vn -0.13896 -0.55130 0.82266
vn -0.69328 -0.50487 0.51427
vn -0.99649 -0.05225 0.06538
vn -0.77279 0.01776 -0.63441
vn -0.26027 0.01676 -0.96539
vn 0.24934 -0.01378 -0.96832
vn 0.76100 -0.02001 -0.64845
vn 0.99906 0.01317 0.04138
vn 0.77181 0.01515 0.63567
vn 0.34032 -0.02518 0.93997
vn -0.33445 0.01487 0.94230
vn -0.81114 -0.01172 0.58473
vn -0.61390 0.78738 -0.05618
vn -0.45062 0.77530 -0.44255
vn -0.11490 0.76551 -0.63309
vn 0.20809 0.78608 -0.58204
vn 0.47941 0.83342 -0.27491
vn 0.55031 0.83173 0.07335
vn 0.46571 0.80241 0.37316
vn 0.17035 0.78293 0.59834
vn -0.26220 0.77159 0.57958
vn -0.52689 0.77099 0.35771
vn -0.09537 0.99477 -0.03657
vn -0.05773 0.99425 -0.09022
vn 0.00404 0.99382 -0.11092
vn 0.06714 0.99374 -0.08934
vn 0.10716 0.99374 -0.03159
vn 0.10688 0.99340 0.04160
vn 0.08339 0.99363 0.07585
vn -0.00368 0.99435 0.10609
vn -0.06399 0.99428 0.08549
vn -0.09526 0.99462 0.04079
vn -0.22695 0.96666 0.11854
vn -0.22612 0.96569 -0.12774
vn -0.08629 0.95433 -0.28604
vn 0.10155 0.95321 -0.28473
vn 0.24607 0.96211 -0.11747
vn 0.24388 0.95981 0.13886
vn 0.09188 0.94709 0.30754
vn -0.05314 0.94915 0.31031
vn -0.81518 -0.56897 0.10839
vn -0.59576 -0.52325 -0.60932
vn -0.05488 -0.47546 -0.87803
vn 0.42283 -0.59658 -0.68213
vn 0.72146 -0.68866 -0.07238
vn 0.53046 -0.64171 0.55391
vn 0.09956 -0.58735 0.80319
vn -0.42477 -0.56473 0.70756
vn -0.99965 0.01801 -0.01959
vn -0.61853 0.02649 -0.78531
vn -0.03436 -0.01304 -0.99932
vn 0.60831 -0.03140 -0.79308
vn 0.99913 0.01543 0.03879
vn 0.61424 0.02639 0.78868
vn 0.02924 -0.02308 0.99931
vn -0.65405 0.00595 0.75643
vn -0.57398 0.81304 -0.09753
vn -0.33095 0.77805 -0.53396
vn 0.03606 0.78086 -0.62366
vn 0.39154 0.84781 -0.35766
vn 0.49887 0.86201 0.08980
vn 0.34029 0.81211 0.47400
vn -0.03005 0.77627 0.62968
vn -0.44508 0.79107 0.41966
vn -0.08373 0.99536 -0.04739
vn -0.03291 0.99346 -0.10933
vn 0.03901 0.99326 -0.10916
vn 0.09219 0.99477 -0.04391
vn 0.09193 0.99438 0.05246
vn 0.05199 0.99346 0.10166
vn -0.03630 0.99411 0.10215
vn -0.08383 0.99552 0.04378
usemtl bark_warm
f 1/1/1 2/2/2 3/3/3
f 2/2/2 4/4/4 3/3/3
f 17/17/17 3/3/3 1/1/1
f 18/18/18 2/2/2 4/4/4
f 3/3/3 4/4/4 5/5/5
f 4/4/4 6/6/6 5/5/5
f 17/17/17 5/5/5 3/3/3
f 18/18/18 4/4/4 6/6/6
f 5/5/5 6/6/6 7/7/7
f 6/6/6 8/8/8 7/7/7
f 17/17/17 7/7/7 5/5/5
f 18/18/18 6/6/6 8/8/8
f 7/7/7 8/8/8 9/9/9
f 8/8/8 10/10/10 9/9/9
f 17/17/17 9/9/9 7/7/7
f 18/18/18 8/8/8 10/10/10
f 9/9/9 10/10/10 11/11/11
f 10/10/10 12/12/12 11/11/11
f 17/17/17 11/11/11 9/9/9
f 18/18/18 10/10/10 12/12/12
f 11/11/11 12/12/12 13/13/13
f 12/12/12 14/14/14 13/13/13
f 17/17/17 13/13/13 11/11/11
f 18/18/18 12/12/12 14/14/14
f 13/13/13 14/14/14 15/15/15
f 14/14/14 16/16/16 15/15/15
f 17/17/17 15/15/15 13/13/13
f 18/18/18 14/14/14 16/16/16
f 15/15/15 16/16/16 1/1/1
f 16/16/16 2/2/2 1/1/1
f 17/17/17 1/1/1 15/15/15
f 18/18/18 16/16/16 2/2/2
usemtl leaf_shadow
f 19/19/19 29/29/29 20/20/20
f 20/20/20 29/29/29 30/30/30
f 20/20/20 30/30/30 21/21/21
f 21/21/21 30/30/30 31/31/31
f 21/21/21 31/31/31 22/22/22
f 22/22/22 31/31/31 32/32/32
f 22/22/22 32/32/32 23/23/23
f 23/23/23 32/32/32 33/33/33
f 23/23/23 33/33/33 24/24/24
f 24/24/24 33/33/33 34/34/34
f 24/24/24 34/34/34 25/25/25
f 25/25/25 34/34/34 35/35/35
f 25/25/25 35/35/35 26/26/26
f 26/26/26 35/35/35 36/36/36
f 26/26/26 36/36/36 27/27/27
f 27/27/27 36/36/36 37/37/37
f 27/27/27 37/37/37 28/28/28
f 28/28/28 37/37/37 38/38/38
f 28/28/28 38/38/38 19/19/19
f 19/19/19 38/38/38 29/29/29
f 29/29/29 39/39/39 30/30/30
f 30/30/30 39/39/39 40/40/40
f 30/30/30 40/40/40 31/31/31
f 31/31/31 40/40/40 41/41/41
f 31/31/31 41/41/41 32/32/32
f 32/32/32 41/41/41 42/42/42
f 32/32/32 42/42/42 33/33/33
f 33/33/33 42/42/42 43/43/43
f 33/33/33 43/43/43 34/34/34
f 34/34/34 43/43/43 44/44/44
f 34/34/34 44/44/44 35/35/35
f 35/35/35 44/44/44 45/45/45
f 35/35/35 45/45/45 36/36/36
f 36/36/36 45/45/45 46/46/46
f 36/36/36 46/46/46 37/37/37
f 37/37/37 46/46/46 47/47/47
f 37/37/37 47/47/47 38/38/38
f 38/38/38 47/47/47 48/48/48
f 38/38/38 48/48/48 29/29/29
f 29/29/29 48/48/48 39/39/39
f 39/39/39 49/49/49 40/40/40
f 40/40/40 49/49/49 50/50/50
f 40/40/40 50/50/50 41/41/41
f 41/41/41 50/50/50 51/51/51
f 41/41/41 51/51/51 42/42/42
f 42/42/42 51/51/51 52/52/52
f 42/42/42 52/52/52 43/43/43
f 43/43/43 52/52/52 53/53/53
f 43/43/43 53/53/53 44/44/44
f 44/44/44 53/53/53 54/54/54
f 44/44/44 54/54/54 45/45/45
f 45/45/45 54/54/54 55/55/55
f 45/45/45 55/55/55 46/46/46
f 46/46/46 55/55/55 56/56/56
f 46/46/46 56/56/56 47/47/47
f 47/47/47 56/56/56 57/57/57
f 47/47/47 57/57/57 48/48/48
f 48/48/48 57/57/57 58/58/58
f 48/48/48 58/58/58 39/39/39
f 39/39/39 58/58/58 49/49/49
f 49/49/49 59/59/59 50/50/50
f 50/50/50 59/59/59 60/60/60
f 50/50/50 60/60/60 51/51/51
f 51/51/51 60/60/60 61/61/61
f 51/51/51 61/61/61 52/52/52
f 52/52/52 61/61/61 62/62/62
f 52/52/52 62/62/62 53/53/53
f 53/53/53 62/62/62 63/63/63
f 53/53/53 63/63/63 54/54/54
f 54/54/54 63/63/63 64/64/64
f 54/54/54 64/64/64 55/55/55
f 55/55/55 64/64/64 65/65/65
f 55/55/55 65/65/65 56/56/56
f 56/56/56 65/65/65 66/66/66
f 56/56/56 66/66/66 57/57/57
f 57/57/57 66/66/66 67/67/67
f 57/57/57 67/67/67 58/58/58
f 58/58/58 67/67/67 68/68/68
f 58/58/58 68/68/68 49/49/49
f 49/49/49 68/68/68 59/59/59
usemtl leaf_summer
f 69/69/69 79/79/79 70/70/70
f 70/70/70 79/79/79 80/80/80
f 70/70/70 80/80/80 71/71/71
f 71/71/71 80/80/80 81/81/81
f 71/71/71 81/81/81 72/72/72
f 72/72/72 81/81/81 82/82/82
f 72/72/72 82/82/82 73/73/73
f 73/73/73 82/82/82 83/83/83
f 73/73/73 83/83/83 74/74/74
f 74/74/74 83/83/83 84/84/84
f 74/74/74 84/84/84 75/75/75
f 75/75/75 84/84/84 85/85/85
f 75/75/75 85/85/85 76/76/76
f 76/76/76 85/85/85 86/86/86
f 76/76/76 86/86/86 77/77/77
f 77/77/77 86/86/86 87/87/87
f 77/77/77 87/87/87 78/78/78
f 78/78/78 87/87/87 88/88/88
f 78/78/78 88/88/88 69/69/69
f 69/69/69 88/88/88 79/79/79
f 79/79/79 89/89/89 80/80/80
f 80/80/80 89/89/89 90/90/90
f 80/80/80 90/90/90 81/81/81
f 81/81/81 90/90/90 91/91/91
f 81/81/81 91/91/91 82/82/82
f 82/82/82 91/91/91 92/92/92
f 82/82/82 92/92/92 83/83/83
f 83/83/83 92/92/92 93/93/93
f 83/83/83 93/93/93 84/84/84
f 84/84/84 93/93/93 94/94/94
f 84/84/84 94/94/94 85/85/85
f 85/85/85 94/94/94 95/95/95
f 85/85/85 95/95/95 86/86/86
f 86/86/86 95/95/95 96/96/96
f 86/86/86 96/96/96 87/87/87
f 87/87/87 96/96/96 97/97/97
f 87/87/87 97/97/97 88/88/88
f 88/88/88 97/97/97 98/98/98
f 88/88/88 98/98/98 79/79/79
f 79/79/79 98/98/98 89/89/89
f 89/89/89 99/99/99 90/90/90
f 90/90/90 99/99/99 100/100/100
f 90/90/90 100/100/100 91/91/91
f 91/91/91 100/100/100 101/101/101
f 91/91/91 101/101/101 92/92/92
f 92/92/92 101/101/101 102/102/102
f 92/92/92 102/102/102 93/93/93
f 93/93/93 102/102/102 103/103/103
f 93/93/93 103/103/103 94/94/94
f 94/94/94 103/103/103 104/104/104
f 94/94/94 104/104/104 95/95/95
f 95/95/95 104/104/104 105/105/105
f 95/95/95 105/105/105 96/96/96
f 96/96/96 105/105/105 106/106/106
f 96/96/96 106/106/106 97/97/97
f 97/97/97 106/106/106 107/107/107
f 97/97/97 107/107/107 98/98/98
f 98/98/98 107/107/107 108/108/108
f 98/98/98 108/108/108 89/89/89
f 89/89/89 108/108/108 99/99/99
f 99/99/99 109/109/109 100/100/100
f 100/100/100 109/109/109 110/110/110
f 100/100/100 110/110/110 101/101/101
f 101/101/101 110/110/110 111/111/111
f 101/101/101 111/111/111 102/102/102
f 102/102/102 111/111/111 112/112/112
f 102/102/102 112/112/112 103/103/103
f 103/103/103 112/112/112 113/113/113
f 103/103/103 113/113/113 104/104/104
f 104/104/104 113/113/113 114/114/114
f 104/104/104 114/114/114 105/105/105
f 105/105/105 114/114/114 115/115/115
f 105/105/105 115/115/115 106/106/106
f 106/106/106 115/115/115 116/116/116
f 106/106/106 116/116/116 107/107/107
f 107/107/107 116/116/116 117/117/117
f 107/107/107 117/117/117 108/108/108
f 108/108/108 117/117/117 118/118/118
f 108/108/108 118/118/118 99/99/99
f 99/99/99 118/118/118 109/109/109
usemtl leaf_fresh
f 119/119/119 127/127/127 120/120/120
f 120/120/120 127/127/127 128/128/128
f 120/120/120 128/128/128 121/121/121
f 121/121/121 128/128/128 129/129/129
f 121/121/121 129/129/129 122/122/122
f 122/122/122 129/129/129 130/130/130
f 122/122/122 130/130/130 123/123/123
f 123/123/123 130/130/130 131/131/131
f 123/123/123 131/131/131 124/124/124
f 124/124/124 131/131/131 132/132/132
f 124/124/124 132/132/132 125/125/125
f 125/125/125 132/132/132 133/133/133
f 125/125/125 133/133/133 126/126/126
f 126/126/126 133/133/133 134/134/134
f 126/126/126 134/134/134 119/119/119
f 119/119/119 134/134/134 127/127/127
f 127/127/127 135/135/135 128/128/128
f 128/128/128 135/135/135 136/136/136
f 128/128/128 136/136/136 129/129/129
f 129/129/129 136/136/136 137/137/137
f 129/129/129 137/137/137 130/130/130
f 130/130/130 137/137/137 138/138/138
f 130/130/130 138/138/138 131/131/131
f 131/131/131 138/138/138 139/139/139
f 131/131/131 139/139/139 132/132/132
f 132/132/132 139/139/139 140/140/140
f 132/132/132 140/140/140 133/133/133
f 133/133/133 140/140/140 141/141/141
f 133/133/133 141/141/141 134/134/134
f 134/134/134 141/141/141 142/142/142
f 134/134/134 142/142/142 127/127/127
f 127/127/127 142/142/142 135/135/135
f 135/135/135 143/143/143 136/136/136
f 136/136/136 143/143/143 144/144/144
f 136/136/136 144/144/144 137/137/137
f 137/137/137 144/144/144 145/145/145
f 137/137/137 145/145/145 138/138/138
f 138/138/138 145/145/145 146/146/146
f 138/138/138 146/146/146 139/139/139
f 139/139/139 146/146/146 147/147/147
f 139/139/139 147/147/147 140/140/140
f 140/140/140 147/147/147 148/148/148
f 140/140/140 148/148/148 141/141/141
f 141/141/141 148/148/148 149/149/149
f 141/141/141 149/149/149 142/142/142
f 142/142/142 149/149/149 150/150/150
f 142/142/142 150/150/150 135/135/135
f 135/135/135 150/150/150 143/143/143
f 143/143/143 151/151/151 144/144/144
f 144/144/144 151/151/151 152/152/152
f 144/144/144 152/152/152 145/145/145
f 145/145/145 152/152/152 153/153/153
f 145/145/145 153/153/153 146/146/146
f 146/146/146 153/153/153 154/154/154
f 146/146/146 154/154/154 147/147/147
f 147/147/147 154/154/154 155/155/155
f 147/147/147 155/155/155 148/148/148
f 148/148/148 155/155/155 156/156/156
f 148/148/148 156/156/156 149/149/149
f 149/149/149 156/156/156 157/157/157
f 149/149/149 157/157/157 150/150/150
f 150/150/150 157/157/157 158/158/158
f 150/150/150 158/158/158 143/143/143
f 143/143/143 158/158/158 151/151/151
