mtllib procedural_trees.mtl
o tree_maple_young
v 0.00000 0.00000 0.12000
v 0.00000 0.76000 0.07500
v 0.08485 0.00000 0.08485
v 0.05303 0.76000 0.05303
v 0.12000 0.00000 0.00000
v 0.07500 0.76000 0.00000
v 0.08485 0.00000 -0.08485
v 0.05303 0.76000 -0.05303
v 0.00000 0.00000 -0.12000
v 0.00000 0.76000 -0.07500
v -0.08485 0.00000 -0.08485
v -0.05303 0.76000 -0.05303
v -0.12000 0.00000 -0.00000
v -0.07500 0.76000 -0.00000
v -0.08485 0.00000 0.08485
v -0.05303 0.76000 0.05303
v 0.00000 0.00000 0.00000
v 0.00000 0.76000 0.00000
v -0.02089 0.55293 0.04146
v -0.11911 0.92116 0.03932
v 0.02512 0.56722 0.01493
v -0.09736 0.92791 0.02678
v 0.02512 0.57123 -0.03992
v -0.09736 0.92981 0.00085
v -0.02089 0.56096 -0.06825
v -0.11911 0.92495 -0.01254
v -0.06690 0.54667 -0.04172
v -0.14086 0.91820 0.00000
v -0.06690 0.54266 0.01313
v -0.14086 0.91630 0.02593
v -0.02089 0.55695 -0.01339
v -0.11911 0.92305 0.01339
v 0.02846 0.59273 0.06684
v 0.13154 0.93390 0.00888
v 0.07161 0.57761 0.04206
v 0.15146 0.92692 -0.00256
v 0.07161 0.57308 -0.00974
v 0.15146 0.92483 -0.02647
v 0.02846 0.58366 -0.03677
v 0.13154 0.92971 -0.03894
v -0.01469 0.59877 -0.01199
v 0.11163 0.93669 -0.02751
v -0.01469 0.60331 0.03981
v 0.11163 0.93878 -0.00360
v 0.02846 0.58819 0.01503
v 0.13154 0.93181 -0.01503
v 0.00000 1.44000 0.00000
v 0.00000 1.44000 0.00000
v 0.00000 1.44000 0.00000
v 0.00000 1.44000 0.00000
v 0.00000 1.44000 0.00000
v 0.00000 1.44000 0.00000
v 0.00000 1.44000 0.00000
v 0.00000 1.44000 0.00000
v 0.00000 1.44000 0.00000
v 0.23388 1.36385 0.00000
v 0.17442 1.36385 0.13381
v 0.04598 1.36385 0.23844
v -0.12931 1.36385 0.20478
v -0.23721 1.36385 0.07894
v -0.23140 1.36385 -0.07700
v -0.12003 1.36385 -0.19008
v 0.04061 1.36385 -0.21058
v 0.17442 1.36385 -0.13381
v 0.35700 1.18000 0.00000
v 0.26677 1.18000 0.20466
v 0.05895 1.18000 0.30568
v -0.16537 1.18000 0.26189
v -0.30258 1.18000 0.10069
v -0.35191 1.18000 -0.11711
v -0.18288 1.18000 -0.28960
v 0.06199 1.18000 -0.32144
v 0.26677 1.18000 -0.20466
v 0.22769 0.99615 0.00000
v 0.20286 0.99615 0.15563
v 0.04491 0.99615 0.23286
v -0.12622 0.99615 0.19988
v -0.23140 0.99615 0.07700
v -0.22559 0.99615 -0.07507
v -0.11694 0.99615 -0.18518
v 0.03954 0.99615 -0.20501
v 0.20286 0.99615 -0.15563
v 0.00000 0.92000 0.00000
v 0.00000 0.92000 0.00000
v 0.00000 0.92000 0.00000
v -0.00000 0.92000 0.00000
v -0.00000 0.92000 0.00000
v -0.00000 0.92000 -0.00000
v -0.00000 0.92000 -0.00000
v 0.00000 0.92000 -0.00000
v 0.00000 0.92000 -0.00000
v 0.04000 1.67000 -0.02000
v 0.04000 1.67000 -0.02000
v 0.04000 1.67000 -0.02000
v 0.04000 1.67000 -0.02000
v 0.04000 1.67000 -0.02000
v 0.04000 1.67000 -0.02000
v 0.04000 1.67000 -0.02000
v 0.04000 1.67000 -0.02000
v 0.20886 1.62021 -0.02000
v 0.15640 1.62021 0.08670
v 0.04000 1.62021 0.12701
v -0.07040 1.62021 0.08120
v -0.14159 1.62021 -0.02000
v -0.08540 1.62021 -0.13495
v 0.04000 1.62021 -0.17867
v 0.15940 1.62021 -0.12945
v 0.29680 1.50000 -0.02000
v 0.21734 1.50000 0.14256
v 0.04000 1.50000 0.20440
v -0.12886 1.50000 0.13479
v -0.19280 1.50000 -0.02000
v -0.12037 1.50000 -0.16701
v 0.04000 1.50000 -0.22240
v 0.22159 1.50000 -0.18645
v 0.20461 1.37979 -0.02000
v 0.15340 1.37979 0.08395
v 0.04000 1.37979 0.12312
v -0.08840 1.37979 0.09770
v -0.13734 1.37979 -0.02000
v -0.08240 1.37979 -0.13220
v 0.04000 1.37979 -0.17479
v 0.15640 1.37979 -0.12670
v 0.04000 1.33000 -0.02000
v 0.04000 1.33000 -0.02000
v 0.04000 1.33000 -0.02000
v 0.04000 1.33000 -0.02000
v 0.04000 1.33000 -0.02000
v 0.04000 1.33000 -0.02000
v 0.04000 1.33000 -0.02000
v 0.04000 1.33000 -0.02000
v -0.22000 1.19000 0.16000
v -0.22000 1.19000 0.16000
v -0.22000 1.19000 0.16000
v -0.22000 1.19000 0.16000
v -0.22000 1.19000 0.16000
v -0.22000 1.19000 0.16000
v -0.22000 1.19000 0.16000
v -0.22000 1.19000 0.16000
v -0.06111 1.14607 0.16000
v -0.11027 1.14607 0.25928
v -0.22000 1.14607 0.29704
v -0.32448 1.14607 0.25453
v -0.36404 1.14607 0.16000
v -0.31923 1.14607 0.07022
v -0.22000 1.14607 0.03640
v -0.10765 1.14607 0.05835
v -0.01630 1.04000 0.16000
v -0.07967 1.04000 0.28696
v -0.22000 1.04000 0.33480
v -0.37889 1.04000 0.30375
v -0.43945 1.04000 0.16000
v -0.37146 1.04000 0.02296
v -0.22000 1.04000 -0.02905
v -0.07596 1.04000 0.02968
v -0.06483 0.93393 0.16000
v -0.11290 0.93393 0.25690
v -0.22000 0.93393 0.29368
v -0.32185 0.93393 0.25215
v -0.36033 0.93393 0.16000
v -0.31660 0.93393 0.07260
v -0.22000 0.93393 0.01625
v -0.11028 0.93393 0.06072
v -0.22000 0.89000 0.16000
v -0.22000 0.89000 0.16000
v -0.22000 0.89000 0.16000
v -0.22000 0.89000 0.16000
v -0.22000 0.89000 0.16000
v -0.22000 0.89000 0.16000
v -0.22000 0.89000 0.16000
v -0.22000 0.89000 0.16000
vt 0.75000 0.00000
vt 0.75000 0.45509
vt 0.62500 0.00000
vt 0.62500 0.45509
vt 0.50000 0.00000
vt 0.50000 0.45509
vt 0.37500 0.00000
vt 0.37500 0.45509
vt 0.25000 0.00000
vt 0.25000 0.45509
vt 0.12500 0.00000
vt 0.12500 0.45509
vt 0.00000 0.00000
vt 0.00000 0.45509
vt 0.87500 0.00000
vt 0.87500 0.45509
vt 0.50000 0.00000
vt 0.50000 0.45509
vt 0.82428 0.33110
vt 0.94925 0.55159
vt 0.58535 0.33965
vt 0.95728 0.55563
vt 0.33939 0.34205
vt 0.99861 0.55677
vt 0.20273 0.33590
vt 0.01669 0.55386
vt 0.08875 0.32735
vt 1.00000 0.54982
vt 0.96916 0.32495
vt 0.97103 0.54868
vt 0.09072 0.33350
vt 0.98218 0.55272
vt 0.68593 0.35493
vt 0.51073 0.55922
vt 0.58452 0.34587
vt 0.49731 0.55504
vt 0.47848 0.34316
vt 0.47246 0.55379
vt 0.35483 0.34950
vt 0.45419 0.55671
vt 0.10895 0.35854
vt 0.46154 0.56089
vt 0.80626 0.36126
vt 0.49487 0.56214
vt 0.57733 0.35221
vt 0.48189 0.55797
vt 0.50000 0.86228
vt 0.50000 0.86228
vt 0.50000 0.86228
vt 0.50000 0.86228
vt 0.50000 0.86228
vt 0.50000 0.86228
vt 0.50000 0.86228
vt 0.50000 0.86228
vt 0.50000 0.86228
vt 0.50000 0.81668
vt 0.60415 0.81668
vt 0.71968 0.81668
vt 0.83964 0.81668
vt 0.94887 0.81668
vt 0.05113 0.81668
vt 0.16036 0.81668
vt 0.28032 0.81668
vt 0.39585 0.81668
vt 0.50000 0.70659
vt 0.60415 0.70659
vt 0.71968 0.70659
vt 0.83964 0.70659
vt 0.94887 0.70659
vt 0.05113 0.70659
vt 0.16036 0.70659
vt 0.28032 0.70659
vt 0.39585 0.70659
vt 0.50000 0.59650
vt 0.60415 0.59650
vt 0.71968 0.59650
vt 0.83964 0.59650
vt 0.94887 0.59650
vt 0.05113 0.59650
vt 0.16036 0.59650
vt 0.28032 0.59650
vt 0.39585 0.59650
vt 0.50000 0.55090
vt 0.50000 0.55090
vt 0.50000 0.55090
vt 0.50000 0.55090
vt 0.50000 0.55090
vt 0.50000 0.55090
vt 0.50000 0.55090
vt 0.50000 0.55090
vt 0.50000 0.55090
vt 0.42621 1.00000
vt 0.42621 1.00000
vt 0.42621 1.00000
vt 0.42621 1.00000
vt 0.42621 1.00000
vt 0.42621 1.00000
vt 0.42621 1.00000
vt 0.42621 1.00000
vt 0.48481 0.97019
vt 0.58056 0.97019
vt 0.70144 0.97019
vt 0.86368 0.97019
vt 0.02233 0.97019
vt 0.16020 0.97019
vt 0.28505 0.97019
vt 0.39144 0.97019
vt 0.48929 0.89820
vt 0.59239 0.89820
vt 0.71924 0.89820
vt 0.87142 0.89820
vt 0.01645 0.89820
vt 0.15061 0.89820
vt 0.27832 0.89820
vt 0.38867 0.89820
vt 0.48449 0.82622
vt 0.57970 0.82622
vt 0.70000 0.82622
vt 0.86705 0.82622
vt 0.02302 0.82622
vt 0.16129 0.82622
vt 0.28581 0.82622
vt 0.39164 0.82622
vt 0.42621 0.79641
vt 0.42621 0.79641
vt 0.42621 0.79641
vt 0.42621 0.79641
vt 0.42621 0.79641
vt 0.42621 0.79641
vt 0.42621 0.79641
vt 0.42621 0.79641
vt 0.89992 0.71257
vt 0.89992 0.71257
vt 0.89992 0.71257
vt 0.89992 0.71257
vt 0.89992 0.71257
vt 0.89992 0.71257
vt 0.89992 0.71257
vt 0.89992 0.71257
vt 0.80807 0.68627
vt 0.81400 0.68627
vt 0.85146 0.68627
vt 0.89413 0.68627
vt 0.93409 0.68627
vt 0.96554 0.68627
vt 0.97390 0.68627
vt 0.92095 0.68627
vt 0.76616 0.62275
vt 0.79310 0.62275
vt 0.84253 0.62275
vt 0.89245 0.62275
vt 0.94443 0.62275
vt 0.99018 0.62275
vt 0.02089 0.62275
vt 0.94072 0.62275
vt 0.81127 0.55924
vt 0.81590 0.55924
vt 0.85233 0.55924
vt 0.89423 0.55924
vt 0.93349 0.55924
vt 0.96412 0.55924
vt 0.98827 0.55924
vt 0.91990 0.55924
vt 0.89992 0.53293
vt 0.89992 0.53293
vt 0.89992 0.53293
vt 0.89992 0.53293
vt 0.89992 0.53293
vt 0.89992 0.53293
vt 0.89992 0.53293
vt 0.89992 0.53293
vn 0.10815 -0.61235 -0.78316
vn -0.11431 0.54924 -0.82781
vn -0.47734 -0.61234 -0.63023
vn -0.66617 0.54922 -0.50455
vn -0.78316 -0.61235 -0.10815
vn -0.82781 0.54924 0.11431
vn -0.63023 -0.61234 0.47734
vn -0.50455 0.54922 0.66617
vn -0.10815 -0.61235 0.78316
vn 0.11431 0.54924 0.82781
vn 0.47734 -0.61234 0.63023
vn 0.66617 0.54922 0.50455
vn 0.78316 -0.61235 0.10815
vn 0.82781 0.54924 -0.11431
vn 0.63023 -0.61234 -0.47734
vn 0.50455 0.54922 -0.66617
vn 0.00000 -1.00000 0.00000
vn 0.00000 1.00000 0.00000
vn 0.30571 -0.52388 -0.79504
vn -0.29651 0.56206 -0.77213
vn -0.39585 -0.72947 -0.55783
vn -0.89963 0.36168 -0.24463
vn -0.53618 -0.82196 0.19210
vn -0.74892 0.34270 0.56717
vn 0.02509 -0.70892 0.70484
vn 0.00505 0.52421 0.85157
vn 0.72663 -0.50332 0.46763
vn 0.60821 0.72459 0.32412
vn 0.86692 -0.41082 -0.28228
vn 0.45743 0.74356 -0.48772
vn 0.25852 -0.96343 -0.07049
vn -0.25851 0.96343 0.07047
vn -0.04430 -0.71855 -0.69407
vn 0.01168 0.51125 -0.85935
vn -0.73965 -0.48956 -0.46180
vn -0.58695 0.73662 -0.33596
vn -0.87868 -0.38243 0.28577
vn -0.43730 0.76279 0.47636
vn -0.32240 -0.50424 0.80113
vn 0.31095 0.56362 0.76528
vn 0.37278 -0.73309 0.56887
vn 0.90944 0.33823 0.24192
vn 0.51186 -0.84027 -0.17873
vn 0.75986 0.31203 -0.57031
vn -0.28636 -0.95447 0.08356
vn 0.28639 0.95446 -0.08356
vn -0.27632 0.95319 0.12279
vn -0.27632 0.95319 -0.12279
vn -0.19086 0.95325 -0.23430
vn 0.05485 0.95677 -0.28562
vn 0.21654 0.95845 -0.18567
vn 0.28263 0.95917 0.01053
vn 0.21176 0.95481 0.20856
vn 0.03959 0.94984 0.31023
vn -0.15610 0.94953 0.27209
vn -0.76603 -0.63660 0.08914
vn -0.65556 -0.61529 -0.43779
vn -0.24454 -0.55129 -0.79767
vn 0.36255 -0.49616 -0.78892
vn 0.78043 -0.50469 -0.36907
vn 0.77848 -0.60085 0.18150
vn 0.40757 -0.62140 0.66914
vn -0.08636 -0.60474 0.79172
vn -0.53764 -0.61144 0.58059
vn -0.99916 -0.01366 -0.03875
vn -0.76948 -0.02441 -0.63820
vn -0.12894 0.01660 -0.99151
vn 0.50407 0.01333 -0.86356
vn 0.91086 -0.01558 -0.41243
vn 0.95143 -0.01568 0.30747
vn 0.44160 0.01638 0.89706
vn -0.19494 0.01109 0.98075
vn -0.71275 -0.06121 0.69874
vn -0.58209 0.81042 -0.06625
vn -0.43585 0.79154 -0.42837
vn -0.02515 0.76939 -0.63829
vn 0.37115 0.76993 -0.51908
vn 0.57055 0.79986 -0.18626
vn 0.47354 0.83905 0.26787
vn 0.20239 0.82368 0.52971
vn -0.12028 0.79550 0.59390
vn -0.45788 0.81787 0.34847
vn -0.10685 0.99413 -0.01705
vn -0.04675 0.99432 -0.09561
vn 0.02088 0.99390 -0.10833
vn 0.08186 0.99418 -0.07007
vn 0.10662 0.99429 0.00407
vn 0.08083 0.99353 0.07976
vn 0.01524 0.99262 0.12028
vn -0.03367 0.99321 0.11136
vn -0.10685 0.99413 0.01705
vn -0.25671 0.95950 0.11601
vn -0.25573 0.95854 -0.12573
vn -0.09937 0.95278 -0.28694
vn 0.11827 0.95119 -0.28504
vn 0.23659 0.95725 -0.16643
vn 0.24201 0.96303 0.11830
vn 0.09461 0.95781 0.27137
vn -0.11125 0.95644 0.26988
vn -0.73895 -0.66901 0.07983
vn -0.56036 -0.64754 -0.51642
vn -0.05393 -0.62247 -0.78078
vn 0.43803 -0.62143 -0.64958
vn 0.79351 -0.59420 -0.13142
vn 0.63129 -0.52151 0.57402
vn 0.06373 -0.49654 0.86567
vn -0.44855 -0.60041 0.66206
vn -0.99976 0.01313 -0.01768
vn -0.65848 0.01835 -0.75238
vn 0.03046 0.01288 -0.99945
vn 0.65833 -0.03207 -0.75205
vn 0.99926 0.01784 0.03402
vn 0.65970 0.02070 0.75124
vn 0.03967 -0.01339 0.99912
vn -0.63544 -0.02432 0.77177
vn -0.51773 0.85235 -0.07382
vn -0.31241 0.83756 -0.44821
vn 0.03422 0.80542 -0.59172
vn 0.43933 0.79957 -0.40949
vn 0.59687 0.79677 0.09435
vn 0.35653 0.78138 0.51218
vn -0.04020 0.79403 0.60655
vn -0.40899 0.84471 0.34525
vn -0.09667 0.99418 -0.04762
vn -0.03812 0.99316 -0.11035
vn 0.02192 0.99361 -0.11072
vn 0.09041 0.99519 -0.03759
vn 0.09024 0.99494 0.04419
vn 0.03574 0.99407 0.10272
vn -0.04236 0.99383 0.10254
vn -0.09679 0.99434 0.04373
vn -0.24424 0.96325 0.11182
vn -0.24344 0.96240 -0.12054
vn -0.09490 0.95652 -0.27579
vn 0.11159 0.95516 -0.27427
vn 0.26410 0.95814 -0.11052
vn 0.26201 0.95616 0.13077
vn 0.10122 0.94950 0.29698
vn -0.05866 0.95206 0.30022
vn -0.83559 -0.54088 0.09611
vn -0.63019 -0.51697 -0.57931
vn -0.06289 -0.48989 -0.86951
vn 0.45542 -0.59576 -0.66156
vn 0.74970 -0.65860 -0.06473
vn 0.56491 -0.63433 0.52774
vn 0.11149 -0.60334 0.78965
vn -0.45569 -0.56775 0.68557
vn -0.99970 0.01660 -0.01774
vn -0.65613 0.02103 -0.75436
vn -0.03909 -0.01325 -0.99915
vn 0.64437 -0.02419 -0.76433
vn 0.99930 0.01409 0.03479
vn 0.65420 0.01908 0.75608
vn 0.03202 -0.02562 0.99916
vn -0.69121 0.01134 0.72256
vn -0.59785 0.79668 -0.08873
vn -0.35616 0.77855 -0.51673
vn 0.04015 0.79008 -0.61169
vn 0.41682 0.84276 -0.34063
vn 0.52580 0.84656 0.08289
vn 0.36767 0.81055 0.45588
vn -0.03517 0.78663 0.61642
vn -0.47095 0.78698 0.39858
vn -0.09093 0.99484 -0.04511
vn -0.03598 0.99385 -0.10477
vn 0.04264 0.99360 -0.10458
vn 0.10000 0.99411 -0.04176
vn 0.09974 0.99376 0.04991
vn 0.05675 0.99364 0.09728
vn -0.03966 0.99441 0.09784
vn -0.09102 0.99498 0.04167
usemtl bark_warm
f 1/1/1 2/2/2 3/3/3
f 2/2/2 4/4/4 3/3/3
f 17/17/17 3/3/3 1/1/1
f 18/18/18 2/2/2 4/4/4
f 3/3/3 4/4/4 5/5/5
f 4/4/4 6/6/6 5/5/5
f 17/17/17 5/5/5 3/3/3
f 18/18/18 4/4/4 6/6/6
f 5/5/5 6/6/6 7/7/7
f 6/6/6 8/8/8 7/7/7
f 17/17/17 7/7/7 5/5/5
f 18/18/18 6/6/6 8/8/8
f 7/7/7 8/8/8 9/9/9
f 8/8/8 10/10/10 9/9/9
f 17/17/17 9/9/9 7/7/7
f 18/18/18 8/8/8 10/10/10
f 9/9/9 10/10/10 11/11/11
f 10/10/10 12/12/12 11/11/11
f 17/17/17 11/11/11 9/9/9
f 18/18/18 10/10/10 12/12/12
f 11/11/11 12/12/12 13/13/13
f 12/12/12 14/14/14 13/13/13
f 17/17/17 13/13/13 11/11/11
f 18/18/18 12/12/12 14/14/14
f 13/13/13 14/14/14 15/15/15
f 14/14/14 16/16/16 15/15/15
f 17/17/17 15/15/15 13/13/13
f 18/18/18 14/14/14 16/16/16
f 15/15/15 16/16/16 1/1/1
f 16/16/16 2/2/2 1/1/1
f 17/17/17 1/1/1 15/15/15
f 18/18/18 16/16/16 2/2/2
f 19/19/19 20/20/20 21/21/21
f 20/20/20 22/22/22 21/21/21
f 31/31/31 21/21/21 19/19/19
f 32/32/32 20/20/20 22/22/22
f 21/21/21 22/22/22 23/23/23
f 22/22/22 24/24/24 23/23/23
f 31/31/31 23/23/23 21/21/21
f 32/32/32 22/22/22 24/24/24
f 23/23/23 24/24/24 25/25/25
f 24/24/24 26/26/26 25/25/25
f 31/31/31 25/25/25 23/23/23
f 32/32/32 24/24/24 26/26/26
f 25/25/25 26/26/26 27/27/27
f 26/26/26 28/28/28 27/27/27
f 31/31/31 27/27/27 25/25/25
f 32/32/32 26/26/26 28/28/28
f 27/27/27 28/28/28 29/29/29
f 28/28/28 30/30/30 29/29/29
f 31/31/31 29/29/29 27/27/27
f 32/32/32 28/28/28 30/30/30
f 29/29/29 30/30/30 19/19/19
f 30/30/30 20/20/20 19/19/19
f 31/31/31 19/19/19 29/29/29
f 32/32/32 30/30/30 20/20/20
f 33/33/33 34/34/34 35/35/35
f 34/34/34 36/36/36 35/35/35
f 45/45/45 35/35/35 33/33/33
f 46/46/46 34/34/34 36/36/36
f 35/35/35 36/36/36 37/37/37
f 36/36/36 38/38/38 37/37/37
f 45/45/45 37/37/37 35/35/35
f 46/46/46 36/36/36 38/38/38
f 37/37/37 38/38/38 39/39/39
f 38/38/38 40/40/40 39/39/39
f 45/45/45 39/39/39 37/37/37
f 46/46/46 38/38/38 40/40/40
f 39/39/39 40/40/40 41/41/41
f 40/40/40 42/42/42 41/41/41
f 45/45/45 41/41/41 39/39/39
f 46/46/46 40/40/40 42/42/42
f 41/41/41 42/42/42 43/43/43
f 42/42/42 44/44/44 43/43/43
f 45/45/45 43/43/43 41/41/41
f 46/46/46 42/42/42 44/44/44
f 43/43/43 44/44/44 33/33/33
f 44/44/44 34/34/34 33/33/33
f 45/45/45 33/33/33 43/43/43
f 46/46/46 44/44/44 34/34/34
usemtl leaf_summer
f 47/47/47 56/56/56 48/48/48
f 48/48/48 56/56/56 57/57/57
f 48/48/48 57/57/57 49/49/49
f 49/49/49 57/57/57 58/58/58
f 49/49/49 58/58/58 50/50/50
f 50/50/50 58/58/58 59/59/59
f 50/50/50 59/59/59 51/51/51
f 51/51/51 59/59/59 60/60/60
f 51/51/51 60/60/60 52/52/52
f 52/52/52 60/60/60 61/61/61
f 52/52/52 61/61/61 53/53/53
f 53/53/53 61/61/61 62/62/62
f 53/53/53 62/62/62 54/54/54
f 54/54/54 62/62/62 63/63/63
f 54/54/54 63/63/63 55/55/55
f 55/55/55 63/63/63 64/64/64
f 55/55/55 64/64/64 47/47/47
f 47/47/47 64/64/64 56/56/56
f 56/56/56 65/65/65 57/57/57
f 57/57/57 65/65/65 66/66/66
f 57/57/57 66/66/66 58/58/58
f 58/58/58 66/66/66 67/67/67
f 58/58/58 67/67/67 59/59/59
f 59/59/59 67/67/67 68/68/68
f 59/59/59 68/68/68 60/60/60
f 60/60/60 68/68/68 69/69/69
f 60/60/60 69/69/69 61/61/61
f 61/61/61 69/69/69 70/70/70
f 61/61/61 70/70/70 62/62/62
f 62/62/62 70/70/70 71/71/71
f 62/62/62 71/71/71 63/63/63
f 63/63/63 71/71/71 72/72/72
f 63/63/63 72/72/72 64/64/64
f 64/64/64 72/72/72 73/73/73
f 64/64/64 73/73/73 56/56/56
f 56/56/56 73/73/73 65/65/65
f 65/65/65 74/74/74 66/66/66
f 66/66/66 74/74/74 75/75/75
f 66/66/66 75/75/75 67/67/67
f 67/67/67 75/75/75 76/76/76
f 67/67/67 76/76/76 68/68/68
f 68/68/68 76/76/76 77/77/77
f 68/68/68 77/77/77 69/69/69
f 69/69/69 77/77/77 78/78/78
f 69/69/69 78/78/78 70/70/70
f 70/70/70 78/78/78 79/79/79
f 70/70/70 79/79/79 71/71/71
f 71/71/71 79/79/79 80/80/80
f 71/71/71 80/80/80 72/72/72
f 72/72/72 80/80/80 81/81/81
f 72/72/72 81/81/81 73/73/73
f 73/73/73 81/81/81 82/82/82
f 73/73/73 82/82/82 65/65/65
f 65/65/65 82/82/82 74/74/74
f 74/74/74 83/83/83 75/75/75
f 75/75/75 83/83/83 84/84/84
f 75/75/75 84/84/84 76/76/76
f 76/76/76 84/84/84 85/85/85
f 76/76/76 85/85/85 77/77/77
f 77/77/77 85/85/85 86/86/86
f 77/77/77 86/86/86 78/78/78
f 78/78/78 86/86/86 87/87/87
f 78/78/78 87/87/87 79/79/79
f 79/79/79 87/87/87 88/88/88
f 79/79/79 88/88/88 80/80/80
f 80/80/80 88/88/88 89/89/89
f 80/80/80 89/89/89 81/81/81
f 81/81/81 89/89/89 90/90/90
f 81/81/81 90/90/90 82/82/82
f 82/82/82 90/90/90 91/91/91
f 82/82/82 91/91/91 74/74/74
f 74/74/74 91/91/91 83/83/83
usemtl leaf_fresh
f 92/92/92 100/100/100 93/93/93
f 93/93/93 100/100/100 101/101/101
f 93/93/93 101/101/101 94/94/94
f 94/94/94 101/101/101 102/102/102
f 94/94/94 102/102/102 95/95/95
f 95/95/95 102/102/102 103/103/103
f 95/95/95 103/103/103 96/96/96
f 96/96/96 103/103/103 104/104/104
f 96/96/96 104/104/104 97/97/97
f 97/97/97 104/104/104 105/105/105
f 97/97/97 105/105/105 98/98/98
f 98/98/98 105/105/105 106/106/106
f 98/98/98 106/106/106 99/99/99
f 99/99/99 106/106/106 107/107/107
f 99/99/99 107/107/107 92/92/92
f 92/92/92 107/107/107 100/100/100
f 100/100/100 108/108/108 101/101/101
f 101/101/101 108/108/108 109/109/109
f 101/101/101 109/109/109 102/102/102
f 102/102/102 109/109/109 110/110/110
f 102/102/102 110/110/110 103/103/103
f 103/103/103 110/110/110 111/111/111
f 103/103/103 111/111/111 104/104/104
f 104/104/104 111/111/111 112/112/112
f 104/104/104 112/112/112 105/105/105
f 105/105/105 112/112/112 113/113/113
f 105/105/105 113/113/113 106/106/106
f 106/106/106 113/113/113 114/114/114
f 106/106/106 114/114/114 107/107/107
f 107/107/107 114/114/114 115/115/115
f 107/107/107 115/115/115 100/100/100
f 100/100/100 115/115/115 108/108/108
f 108/108/108 116/116/116 109/109/109
f 109/109/109 116/116/116 117/117/117
f 109/109/109 117/117/117 110/110/110
f 110/110/110 117/117/117 118/118/118
f 110/110/110 118/118/118 111/111/111
f 111/111/111 118/118/118 119/119/119
f 111/111/111 119/119/119 112/112/112
f 112/112/112 119/119/119 120/120/120
f 112/112/112 120/120/120 113/113/113
f 113/113/113 120/120/120 121/121/121
f 113/113/113 121/121/121 114/114/114
f 114/114/114 121/121/121 122/122/122
f 114/114/114 122/122/122 115/115/115
f 115/115/115 122/122/122 123/123/123
f 115/115/115 123/123/123 108/108/108
f 108/108/108 123/123/123 116/116/116
f 116/116/116 124/124/124 117/117/117
f 117/117/117 124/124/124 125/125/125
f 117/117/117 125/125/125 118/118/118
f 118/118/118 125/125/125 126/126/126
f 118/118/118 126/126/126 119/119/119
f 119/119/119 126/126/126 127/127/127
f 119/119/119 127/127/127 120/120/120
f 120/120/120 127/127/127 128/128/128
f 120/120/120 128/128/128 121/121/121
f 121/121/121 128/128/128 129/129/129
f 121/121/121 129/129/129 122/122/122
f 122/122/122 129/129/129 130/130/130
f 122/122/122 130/130/130 123/123/123
f 123/123/123 130/130/130 131/131/131
f 123/123/123 131/131/131 116/116/116
f 116/116/116 131/131/131 124/124/124
usemtl leaf_shadow
f 132/132/132 140/140/140 133/133/133
f 133/133/133 140/140/140 141/141/141
f 133/133/133 141/141/141 134/134/134
f 134/134/134 141/141/141 142/142/142
f 134/134/134 142/142/142 135/135/135
f 135/135/135 142/142/142 143/143/143
f 135/135/135 143/143/143 136/136/136
f 136/136/136 143/143/143 144/144/144
f 136/136/136 144/144/144 137/137/137
f 137/137/137 144/144/144 145/145/145
f 137/137/137 145/145/145 138/138/138
f 138/138/138 145/145/145 146/146/146
f 138/138/138 146/146/146 139/139/139
f 139/139/139 146/146/146 147/147/147
f 139/139/139 147/147/147 132/132/132
f 132/132/132 147/147/147 140/140/140
f 140/140/140 148/148/148 141/141/141
f 141/141/141 148/148/148 149/149/149
f 141/141/141 149/149/149 142/142/142
f 142/142/142 149/149/149 150/150/150
f 142/142/142 150/150/150 143/143/143
f 143/143/143 150/150/150 151/151/151
f 143/143/143 151/151/151 144/144/144
f 144/144/144 151/151/151 152/152/152
f 144/144/144 152/152/152 145/145/145
f 145/145/145 152/152/152 153/153/153
f 145/145/145 153/153/153 146/146/146
f 146/146/146 153/153/153 154/154/154
f 146/146/146 154/154/154 147/147/147
f 147/147/147 154/154/154 155/155/155
f 147/147/147 155/155/155 140/140/140
f 140/140/140 155/155/155 148/148/148
f 148/148/148 156/156/156 149/149/149
f 149/149/149 156/156/156 157/157/157
f 149/149/149 157/157/157 150/150/150
f 150/150/150 157/157/157 158/158/158
f 150/150/150 158/158/158 151/151/151
f 151/151/151 158/158/158 159/159/159
f 151/151/151 159/159/159 152/152/152
f 152/152/152 159/159/159 160/160/160
f 152/152/152 160/160/160 153/153/153
f 153/153/153 160/160/160 161/161/161
f 153/153/153 161/161/161 154/154/154
f 154/154/154 161/161/161 162/162/162
f 154/154/154 162/162/162 155/155/155
f 155/155/155 162/162/162 163/163/163
f 155/155/155 163/163/163 148/148/148
f 148/148/148 163/163/163 156/156/156
f 156/156/156 164/164/164 157/157/157
f 157/157/157 164/164/164 165/165/165
f 157/157/157 165/165/165 158/158/158
f 158/158/158 165/165/165 166/166/166
f 158/158/158 166/166/166 159/159/159
f 159/159/159 166/166/166 167/167/167
f 159/159/159 167/167/167 160/160/160
f 160/160/160 167/167/167 168/168/168
f 160/160/160 168/168/168 161/161/161
f 161/161/161 168/168/168 169/169/169
f 161/161/161 169/169/169 162/162/162
f 162/162/162 169/169/169 170/170/170
f 162/162/162 170/170/170 163/163/163
f 163/163/163 170/170/170 171/171/171
f 163/163/163 171/171/171 156/156/156
f 156/156/156 171/171/171 164/164/164
