mtllib procedural_trees.mtl
o tree_pine_stacked
v 0.00000 0.00000 0.10000
v 0.00000 1.04000 0.05500
v 0.07071 0.00000 0.07071
v 0.03889 1.04000 0.03889
v 0.10000 0.00000 0.00000
v 0.05500 1.04000 0.00000
v 0.07071 0.00000 -0.07071
v 0.03889 1.04000 -0.03889
v 0.00000 0.00000 -0.10000
v 0.00000 1.04000 -0.05500
v -0.07071 0.00000 -0.07071
v -0.03889 1.04000 -0.03889
v -0.10000 0.00000 -0.00000
v -0.05500 1.04000 -0.00000
v -0.07071 0.00000 0.07071
v -0.03889 1.04000 0.03889
v 0.00000 0.00000 0.00000
v 0.00000 1.04000 0.00000
v 0.00000 1.18000 0.00000
v 0.00000 0.76000 0.00000
v 0.58000 0.76000 0.00000
v 0.41012 0.76000 0.41012
v 0.00000 0.76000 0.58000
v -0.41012 0.76000 0.41012
v -0.58000 0.76000 0.00000
v -0.41012 0.76000 -0.41012
v -0.00000 0.76000 -0.58000
v 0.41012 0.76000 -0.41012
v 0.00000 1.54000 0.02000
v 0.00000 1.10000 0.02000
v 0.45000 1.10000 0.02000
v 0.31820 1.10000 0.33820
v 0.00000 1.10000 0.47000
v -0.31820 1.10000 0.33820
v -0.45000 1.10000 0.02000
v -0.31820 1.10000 -0.29820
v -0.00000 1.10000 -0.43000
v 0.31820 1.10000 -0.29820
v 0.00000 1.83000 -0.01000
v 0.00000 1.43000 -0.01000
v 0.30000 1.43000 -0.01000
v 0.21213 1.43000 0.20213
v 0.00000 1.43000 0.29000
v -0.21213 1.43000 0.20213
v -0.30000 1.43000 -0.01000
v -0.21213 1.43000 -0.22213
v -0.00000 1.43000 -0.31000
v 0.21213 1.43000 -0.22213
vt 0.75000 0.00000
vt 0.75000 0.56831
vt 0.62500 0.00000
vt 0.62500 0.56831
vt 0.50000 0.00000
vt 0.50000 0.56831
vt 0.37500 0.00000
vt 0.37500 0.56831
vt 0.25000 0.00000
vt 0.25000 0.56831
vt 0.12500 0.00000
vt 0.12500 0.56831
vt 0.00000 0.00000
vt 0.00000 0.56831
vt 0.87500 0.00000
vt 0.87500 0.56831
vt 0.50000 0.00000
vt 0.50000 0.56831
vt 0.50000 0.64481
vt 0.50000 0.41530
vt 0.50000 0.41530
vt 0.62500 0.41530
vt 0.75000 0.41530
vt 0.87500 0.41530
vt 1.00000 0.41530
vt 0.12500 0.41530
vt 0.25000 0.41530
vt 0.37500 0.41530
vt 0.75000 0.84153
vt 0.75000 0.60109
vt 0.50707 0.60109
vt 0.62985 0.60109
vt 0.75000 0.60109
vt 0.87015 0.60109
vt 0.99293 0.60109
vt 0.11984 0.60109
vt 0.25000 0.60109
vt 0.38016 0.60109
vt 0.25000 1.00000
vt 0.25000 0.78142
vt 0.49470 0.78142
vt 0.62116 0.78142
vt 0.75000 0.78142
vt 0.87884 0.78142
vt 0.00530 0.78142
vt 0.12866 0.78142
vt 0.25000 0.78142
vt 0.37134 0.78142
vn 0.10899 -0.60420 -0.78934
vn -0.11350 0.55806 -0.82200
vn -0.48109 -0.60420 -0.63521
vn -0.66150 0.55806 -0.50100
vn -0.78934 -0.60420 -0.10899
vn -0.82200 0.55806 0.11350
vn -0.63521 -0.60420 0.48109
vn -0.50100 0.55806 0.66150
vn -0.10899 -0.60420 0.78934
vn 0.11350 0.55806 0.82200
vn 0.48109 -0.60420 0.63521
vn 0.66150 0.55806 0.50100
vn 0.78934 -0.60420 0.10899
vn 0.82200 0.55806 -0.11350
vn 0.63521 -0.60420 -0.48109
vn 0.50100 0.55806 -0.66150
vn 0.00000 -1.00000 0.00000
vn 0.00000 1.00000 0.00000
vn 0.00000 -1.00000 -0.00000
vn 0.00000 1.00000 0.00000
vn -0.93675 0.35001 0.00000
vn -0.66238 0.35001 -0.66238
vn 0.00000 0.35001 -0.93675
vn 0.66238 0.35001 -0.66238
vn 0.93675 0.35001 0.00000
vn 0.66238 0.35001 0.66238
vn 0.00000 0.35001 0.93675
vn -0.66238 0.35001 0.66238
vn 0.00000 -1.00000 -0.00000
vn 0.00000 1.00000 0.00000
vn -0.90627 0.42270 -0.00000
vn -0.64083 0.42270 -0.64083
vn 0.00000 0.42270 -0.90627
vn 0.64083 0.42270 -0.64083
vn 0.90627 0.42270 -0.00000
vn 0.64083 0.42270 0.64083
vn 0.00000 0.42270 0.90627
vn -0.64083 0.42270 0.64083
vn 0.00000 -1.00000 0.00000
vn 0.00000 1.00000 0.00000
vn -0.86996 0.49313 0.00000
vn -0.61515 0.49313 -0.61515
vn 0.00000 0.49313 -0.86996
vn 0.61515 0.49313 -0.61515
vn 0.86996 0.49313 0.00000
vn 0.61515 0.49313 0.61515
vn 0.00000 0.49313 0.86996
vn -0.61515 0.49313 0.61515
usemtl bark_dark
f 1/1/1 2/2/2 3/3/3
f 2/2/2 4/4/4 3/3/3
f 17/17/17 3/3/3 1/1/1
f 18/18/18 2/2/2 4/4/4
f 3/3/3 4/4/4 5/5/5
f 4/4/4 6/6/6 5/5/5
f 17/17/17 5/5/5 3/3/3
f 18/18/18 4/4/4 6/6/6
f 5/5/5 6/6/6 7/7/7
f 6/6/6 8/8/8 7/7/7
f 17/17/17 7/7/7 5/5/5
f 18/18/18 6/6/6 8/8/8
f 7/7/7 8/8/8 9/9/9
f 8/8/8 10/10/10 9/9/9
f 17/17/17 9/9/9 7/7/7
f 18/18/18 8/8/8 10/10/10
f 9/9/9 10/10/10 11/11/11
f 10/10/10 12/12/12 11/11/11
f 17/17/17 11/11/11 9/9/9
f 18/18/18 10/10/10 12/12/12
f 11/11/11 12/12/12 13/13/13
f 12/12/12 14/14/14 13/13/13
f 17/17/17 13/13/13 11/11/11
f 18/18/18 12/12/12 14/14/14
f 13/13/13 14/14/14 15/15/15
f 14/14/14 16/16/16 15/15/15
f 17/17/17 15/15/15 13/13/13
f 18/18/18 14/14/14 16/16/16
f 15/15/15 16/16/16 1/1/1
f 16/16/16 2/2/2 1/1/1
f 17/17/17 1/1/1 15/15/15
f 18/18/18 16/16/16 2/2/2
usemtl leaf_pine
f 19/19/19 21/21/21 22/22/22
f 20/20/20 22/22/22 21/21/21
f 19/19/19 22/22/22 23/23/23
f 20/20/20 23/23/23 22/22/22
f 19/19/19 23/23/23 24/24/24
f 20/20/20 24/24/24 23/23/23
f 19/19/19 24/24/24 25/25/25
f 20/20/20 25/25/25 24/24/24
f 19/19/19 25/25/25 26/26/26
f 20/20/20 26/26/26 25/25/25
f 19/19/19 26/26/26 27/27/27
f 20/20/20 27/27/27 26/26/26
f 19/19/19 27/27/27 28/28/28
f 20/20/20 28/28/28 27/27/27
f 19/19/19 28/28/28 21/21/21
f 20/20/20 21/21/21 28/28/28
usemtl leaf_shadow
f 29/29/29 31/31/31 32/32/32
f 30/30/30 32/32/32 31/31/31
f 29/29/29 32/32/32 33/33/33
f 30/30/30 33/33/33 32/32/32
f 29/29/29 33/33/33 34/34/34
f 30/30/30 34/34/34 33/33/33
f 29/29/29 34/34/34 35/35/35
f 30/30/30 35/35/35 34/34/34
f 29/29/29 35/35/35 36/36/36
f 30/30/30 36/36/36 35/35/35
f 29/29/29 36/36/36 37/37/37
f 30/30/30 37/37/37 36/36/36
f 29/29/29 37/37/37 38/38/38
f 30/30/30 38/38/38 37/37/37
f 29/29/29 38/38/38 31/31/31
f 30/30/30 31/31/31 38/38/38
usemtl leaf_pine
f 39/39/39 41/41/41 42/42/42
f 40/40/40 42/42/42 41/41/41
f 39/39/39 42/42/42 43/43/43
f 40/40/40 43/43/43 42/42/42
f 39/39/39 43/43/43 44/44/44
f 40/40/40 44/44/44 43/43/43
f 39/39/39 44/44/44 45/45/45
f 40/40/40 45/45/45 44/44/44
f 39/39/39 45/45/45 46/46/46
f 40/40/40 46/46/46 45/45/45
f 39/39/39 46/46/46 47/47/47
f 40/40/40 47/47/47 46/46/46
f 39/39/39 47/47/47 48/48/48
f 40/40/40 48/48/48 47/47/47
f 39/39/39 48/48/48 41/41/41
f 40/40/40 41/41/41 48/48/48
